<svg id="Layer_1" data-name="Layer 1" xmlns="http://www.w3.org/2000/svg" xmlns:xlink="http://www.w3.org/1999/xlink" viewBox="0 0 32.83 25.87"><defs><style>.cls-1{fill:#9c7a3b;}.cls-1,.cls-2{stroke:#69390e;}.cls-1,.cls-2,.cls-3,.cls-4,.cls-5,.cls-6{stroke-miterlimit:10;}.cls-2,.cls-6{opacity:0.3;}.cls-2{fill:url(#linear-gradient);}.cls-3{fill:#cecece;}.cls-3,.cls-4{stroke:#797979;}.cls-4{opacity:0.4;fill:url(#linear-gradient-2);}.cls-5{fill:#c9b036;}.cls-5,.cls-6{stroke:#af9611;}.cls-6{fill:url(#linear-gradient-3);}.cls-7{fill:#fff;}</style><linearGradient id="linear-gradient" x1="14.38" y1="4.98" x2="14.38" y2="25.37" gradientUnits="userSpaceOnUse"><stop offset="0.13" stop-color="#fff"/><stop offset="0.7"/></linearGradient><linearGradient id="linear-gradient-2" x1="16.37" y1="2.62" x2="16.37" y2="23.02" xlink:href="#linear-gradient"/><linearGradient id="linear-gradient-3" x1="18.44" y1="0.5" x2="18.44" y2="20.9" xlink:href="#linear-gradient"/></defs><title>NVD_NVD_Stack_Plain</title><polygon class="cls-1" points="28.07 25.37 7.46 25.37 0.69 4.98 21.09 4.98 28.07 25.37"/><polygon class="cls-2" points="28.07 25.37 7.46 25.37 0.69 4.98 21.09 4.98 28.07 25.37"/><polygon class="cls-3" points="30.06 23.02 9.46 23.02 2.69 2.62 23.08 2.62 30.06 23.02"/><polygon class="cls-4" points="30.06 23.02 9.46 23.02 2.69 2.62 23.08 2.62 30.06 23.02"/><polygon class="cls-5" points="32.13 20.9 11.52 20.9 4.75 0.5 25.15 0.5 32.13 20.9"/><polygon class="cls-6" points="32.13 20.9 11.52 20.9 4.75 0.5 25.15 0.5 32.13 20.9"/><path class="cls-7" d="M169.39,149.22v9.64h-1.65l-1-4.38v4.38h-1.58v-9.64h1.58l1.06,4.34v-4.34h1.58Z" transform="translate(-154.01 -143.9)"/><path class="cls-7" d="M173.83,149.22l-0.72,9.54H171l-0.82-9.54h1.5q0.26,3.94.37,6.67,0.11-2.76.23-4.9l0.1-1.77h1.5Z" transform="translate(-154.01 -143.9)"/><path class="cls-7" d="M174.57,149.22h1.29a5.63,5.63,0,0,1,1.69.17,1.29,1.29,0,0,1,.67.55,2.12,2.12,0,0,1,.29.85q0.06,0.47.06,1.84V156a11.3,11.3,0,0,1-.08,1.74,1.47,1.47,0,0,1-.29.68,1.11,1.11,0,0,1-.52.35,3.27,3.27,0,0,1-.93.1h-2.18v-9.64Zm1.73,1.65v6.34a0.44,0.44,0,0,0,.46-0.22,4.53,4.53,0,0,0,.09-1.18v-3.74a7.27,7.27,0,0,0,0-.84,0.43,0.43,0,0,0-.13-0.27A0.63,0.63,0,0,0,176.3,150.87Z" transform="translate(-154.01 -143.9)"/></svg>